<?xml version="1.0" encoding="UTF-8"?>
<svg width="31px" height="31px" viewBox="0 0 31 31" version="1.1" xmlns="http://www.w3.org/2000/svg" xmlns:xlink="http://www.w3.org/1999/xlink">
    <g id="Page-1" stroke="none" stroke-width="1" fill="none" fill-rule="evenodd">
        <g id="AARP-Icon-Set-2019" transform="translate(-129.000000, -948.000000)" fill="#1B1A19">
            <path d="M147.6,964.398 C146.792,965.041 146.588,965.649 146.595,966.229 L146.605,966.993 L142.653,967.043 L142.639,965.884 C142.625,964.83 142.881,964.142 143.532,963.501 C145.457,961.606 146.869,960.718 146.853,959.506 C146.839,958.347 146.012,957.673 144.932,957.687 C143.299,957.708 142.443,958.771 142.355,960.064 L138.294,959.853 C138.616,956.134 141.146,954.099 144.808,954.052 C148.021,954.011 150.757,955.768 150.8,959.166 C150.826,961.169 150.078,962.391 147.6,964.398 Z M144.71,973.341 C143.367,973.358 142.273,972.291 142.256,970.948 C142.239,969.604 143.305,968.51 144.648,968.493 C145.992,968.477 147.087,969.542 147.104,970.887 C147.121,972.229 146.054,973.324 144.71,973.341 Z M144.106,948.951 C135.823,949.057 129.193,955.858 129.299,964.142 C129.404,972.425 136.206,979.055 144.488,978.949 C152.771,978.843 159.402,972.043 159.296,963.76 C159.19,955.476 152.39,948.846 144.106,948.951 L144.106,948.951 Z" id="Fill-1770"></path>
        </g>
    </g>
</svg>