<svg width="30" height="30" viewBox="0 0 166 166" version="1.1" xmlns="http://www.w3.org/2000/svg" xmlns:xlink="http://www.w3.org/1999/xlink">
    <g id="Prototyping" stroke="none" stroke-width="1" fill="none" fill-rule="evenodd">
        <g id="Confirm-partner-request" transform="translate(-106.000000, -165.000000)">
            <g id="Image-/-Userpic-/-Medium" transform="translate(106.000000, 165.000000)">
                <circle id="Oval" fill="#93A3AB" cx="83" cy="83" r="83"></circle>
                <path d="M83,53.95 C81.2275953,53.95 79.4768316,54.2850227 77.7476563,54.9550781 C76.0184809,55.6251336 74.4622465,56.4789011 73.0789063,57.5164063 C71.695566,58.5539114 70.5824261,59.6778585 69.7394531,60.8882813 C68.8964802,62.098704 68.475,63.2442654 68.475,64.325 L68.475,74.7 C68.475,76.731781 68.9829376,79.3255051 69.9988281,82.48125 C71.0147186,85.6369949 72.6033746,88.0794184 74.7648438,89.8085938 C75.3268257,90.2408876 75.7483059,90.7920539 76.0292969,91.4621094 C76.3102879,92.1321648 76.4075525,92.8346317 76.3210938,93.5695313 C76.1914056,94.2612014 75.921226,94.8988252 75.5105469,95.4824219 C75.0998677,96.0660185 74.5703157,96.5091131 73.921875,96.8117188 L55.7007813,105.435938 C55.441405,105.522396 55.0847679,105.727733 54.6308594,106.051953 C54.1769509,106.376173 53.95,106.970569 53.95,107.835156 L53.95,112.05 L111.985156,111.985156 L111.985156,107.964844 C111.985156,106.84088 111.714977,106.138413 111.174609,105.857422 C110.634242,105.576431 110.342448,105.435938 110.299219,105.435938 L92.2078125,96.8765625 C91.5593718,96.5739568 91.0190126,96.1308623 90.5867188,95.5472656 C90.1544249,94.963669 89.8950525,94.3044308 89.8085938,93.5695313 C89.722135,92.8346317 89.8193996,92.1321648 90.1003906,91.4621094 C90.3813816,90.7920539 90.8028618,90.2408876 91.3648438,89.8085938 C93.6127717,88.0794184 95.2014276,85.6261878 96.1308594,82.4488281 C97.0602911,79.2714685 97.525,76.6885516 97.525,74.7 L97.525,64.325 C97.525,63.201036 97.0927127,62.0338602 96.228125,60.8234375 C95.3635373,59.6130148 94.2503974,58.4998749 92.8886719,57.4839844 C91.5269463,56.4680939 89.9707119,55.6251336 88.2199219,54.9550781 C86.4691319,54.2850227 84.7291753,53.95 83,53.95 Z M83,49.8 C85.2911573,49.8 87.5498587,50.2322873 89.7761719,51.096875 C92.0024851,51.9614627 93.9910069,53.0854097 95.7417969,54.46875 C97.4925869,55.8520902 98.9191351,57.4083247 100.021484,59.1375 C101.123834,60.8666753 101.675,62.5958247 101.675,64.325 L101.675,74.7 C101.675,75.9536521 101.545314,77.4018147 101.285938,79.0445313 C101.026561,80.6872478 100.594274,82.3623613 99.9890625,84.0699219 C99.3838511,85.7774825 98.5841196,87.4201744 97.5898438,88.9980469 C96.5955679,90.5759193 95.3851634,91.9268173 93.9585938,93.0507812 L112.05,101.675 C112.05,101.675 112.730853,102.053251 114.092578,102.809766 C115.454304,103.56628 116.135156,104.549734 116.135156,105.760156 L116.135156,112.05 C116.135156,113.173964 115.73529,114.135803 114.935547,114.935547 C114.135803,115.73529 113.173964,116.135156 112.05,116.135156 L53.95,116.135156 C52.7828067,116.135156 51.799353,115.73529 50.9996094,114.935547 C50.1998658,114.135803 49.8,113.173964 49.8,112.05 L49.8,105.760156 C49.8,104.636192 50.4916598,103.674353 51.875,102.874609 C53.2583402,102.074866 53.95,101.675 53.95,101.675 L72.1710938,93.0507812 C70.7012947,91.8835879 69.4692758,90.478654 68.475,88.8359375 C67.4807242,87.193221 66.6701854,85.5181075 66.0433594,83.8105469 C65.4165333,82.1029863 64.9734388,80.43868 64.7140625,78.8175781 C64.4546862,77.1964763 64.325,75.823964 64.325,74.7 L64.325,64.325 C64.325,62.5958247 64.8653592,60.8666753 65.9460938,59.1375 C67.0268283,57.4083247 68.4425694,55.8520902 70.1933594,54.46875 C71.9441494,53.0854097 73.9434783,51.9614627 76.1914062,51.096875 C78.4393342,50.2322873 80.7088427,49.8 83,49.8 Z" id="User-Icon" fill="#FFFFFF"></path>
            </g>
        </g>
    </g>
</svg>
